<?xml version="1.0" encoding="UTF-8"?>
<svg id="Camada_1" data-name="Camada 1" xmlns="http://www.w3.org/2000/svg" viewBox="0 0 1080 1080">
  <defs>
    <style>
      .cls-1 {
        fill: #ffca00;
      }

      .cls-1, .cls-2 {
        stroke-width: 0px;
      }

      .cls-2 {
        fill: #575756;
      }
    </style>
  </defs>
  <path class="cls-1" d="m325.15,642.38v127.87h-4.22v-127.87h4.22Z"/>
  <g>
    <path class="cls-2" d="m76.04,743.6v-74.56h4.22v70.34h28.42v4.22h-32.64Z"/>
    <path class="cls-2" d="m141.55,669.04v74.56h-4.22v-74.56h4.22Z"/>
    <path class="cls-2" d="m221.92,669.04h4.43l-26.78,74.56h-2.58l-26.78-74.56h4.43l23.67,66.96,23.62-66.96Z"/>
    <path class="cls-2" d="m292.28,669.04v4.22h-33.06v30.95h33.06v4.22h-33.06v30.95h33.06v4.22h-37.28v-74.56h37.28Z"/>
    <path class="cls-2" d="m419.98,669.04v74.56h-4.22v-70.02l-28.84,37.81-28.89-37.81v70.02h-4.22v-74.56h6.12l27,35.33,26.94-35.33h6.12Z"/>
    <path class="cls-2" d="m480.32,669.04l27.05,74.56h-4.43l-11.92-32.8h-25.78l-12.13,32.8h-4.48l27.37-74.56h4.32Zm9.17,37.59l-11.34-31.27-11.39,31.27h22.73Z"/>
    <path class="cls-2" d="m554.16,717.76h-13.92v25.84h-4.22v-74.56h19.56c5.69.77,10.53,3.15,14.5,7.12,4.75,4.78,7.12,10.51,7.12,17.19s-2.37,12.5-7.12,17.24c-3.3,3.3-7.08,5.47-11.34,6.49l17.19,26.52h-5.17l-16.61-25.84Zm-13.92-44.45v40.18h12.65c5.52,0,10.25-1.96,14.18-5.88,3.94-3.92,5.91-8.67,5.91-14.26s-1.97-10.28-5.91-14.18c-3.94-3.9-8.67-5.85-14.18-5.85h-12.65Z"/>
    <path class="cls-2" d="m640.13,669.04l-19.35,28,32.59,46.56h-5.11l-30.16-43.08-8.01,11.49v31.58h-4.22v-74.56h4.22v35.7l24.94-35.7h5.11Z"/>
    <path class="cls-2" d="m719.29,669.04v4.22h-33.06v30.95h33.06v4.22h-33.06v30.95h33.06v4.22h-37.28v-74.56h37.28Z"/>
    <path class="cls-2" d="m770.99,673.26v70.34h-4.17v-70.34h-18.88v-4.22h41.92v4.22h-18.88Z"/>
    <path class="cls-2" d="m822.74,669.04v74.56h-4.22v-74.56h4.22Z"/>
    <path class="cls-2" d="m856.71,669.04l49.56,69.44v-69.44h4.22v74.56h-6.49l-48.4-67.81v67.81h-4.22v-74.56h5.33Z"/>
    <path class="cls-2" d="m1002.68,734.32c-7.06,6.78-15.52,10.18-25.36,10.18-10.58,0-19.59-3.72-27.02-11.15-7.44-7.44-11.15-16.44-11.15-27.02s3.72-19.5,11.15-26.97c7.43-7.47,16.44-11.2,27.02-11.2,9.84,0,18.4,3.32,25.68,9.97l-3.22,2.85c-6.4-5.66-13.89-8.49-22.46-8.49-9.35,0-17.34,3.31-23.96,9.91-6.63,6.61-9.94,14.59-9.94,23.94s3.31,17.38,9.94,23.99c6.63,6.61,14.61,9.91,23.96,9.91,8.01,0,15.08-2.46,21.2-7.38v-22.72h4.17v24.2Z"/>
  </g>
  <path class="cls-1" d="m1002.18,583.34s.09-.05.14-.08l-27.13-27.08s-.08.02-.11.04c-.64-.56-1.47-.91-2.39-.91h-182.24l211.48-211.48c.34-.34.61-.74.79-1.19,0-.02.01-.04.02-.06.16-.41.26-.85.26-1.32h0c0-.43-.09-.83-.22-1.2.05-.03.1-.06.16-.09,0-.04,0-.07-.01-.11l-.43-.43c-.32-.56-.78-1.01-1.34-1.34l-25.26-25.22c-.4-.74-1.03-1.34-1.82-1.66-.02,0-.03,0-.05-.01-.42-.16-.86-.26-1.34-.26h-324.14c-.33,0-.64.06-.94.14-.3-.08-.61-.14-.94-.14-2.02,0-3.65,1.64-3.65,3.65v235.12l-238.13-237.7c-.34-.34-.75-.61-1.2-.8-.02,0-.03,0-.05-.02-.42-.16-.86-.26-1.34-.26s-.92.1-1.34.26c-.02,0-.03,0-.05.02-.9.37-1.62,1.09-1.99,1.99,0,.02,0,.03-.01.05-.16.42-.26.86-.26,1.34v240.54h-59.35s.02-.04.03-.05c.11-.06.22-.12.33-.18l-.14-.14c.17-.27.33-.53.51-.84h.01c6.76-11.06,10.66-24.03,10.66-37.87v-106.03c0-8.12-1.36-15.93-3.84-23.24-1.22-3.59-2.7-7.06-4.44-10.38-6.44-12.31-16.3-22.55-28.28-29.52-12.68-21.79-36.24-36.54-63.13-36.54H76.04v252.1h.84l25.81,25.76v.89h.9l.18.18c.06-.06.13-.12.2-.18h323.94c.34.1.69.18,1.07.18,2.02,0,3.65-1.63,3.65-3.65v-235.55l237.68,237.23c.71.7,2.56,1.98,3.49,1.98s1.88-.36,2.6-1.08c.58-.59.72-1.51.61-2.49v-240.79h260.23l-211.47,211.47c-.34.34-.61.75-.8,1.2,0,.02,0,.04-.02.06-.16.41-.26.86-.26,1.32h0c0,.48.1.93.26,1.34,0,.02,0,.04.02.06.17.42.43.8.74,1.13-.03.04-.05.08-.08.11l27.73,27.68c.09-.09.2-.17.29-.26,0,0,0,0,.01,0,.41.16.86.26,1.33.26h244.37c2.02,0,3.65-1.63,3.65-3.65,0-.87-.31-1.65-.82-2.28Zm-11.86-245.75h-35.47l17.72-17.72,17.75,17.72Zm-565.01,5.13v233.31l-19.35-19.32v-233.31l19.35,19.32Zm-116.53,9.42c.6,1.1,1.2,2.19,1.74,3.32,2.85,6.05,4.79,12.61,5.68,19.49.36,2.76.56,5.57.56,8.42v106.03c0,12.11-3.32,23.46-9.07,33.21-.84,1.43-1.74,2.82-2.68,4.18-.08.13-.12.27-.18.4h-.03c-.48,1.18-.34,2.51.37,3.53,0,.01-.01.03-.02.04l24.42,24.37H110v-210.84h167.68c11.25,0,21.84,2.84,31.1,7.85Zm23,20.62c2.04,2.96,3.85,6.08,5.39,9.36,2.85,6.05,4.79,12.61,5.68,19.49.36,2.76.56,5.57.56,8.42v106.03c0,12.11-3.32,23.46-9.07,33.21-.04.07-.09.13-.13.2l-21.36-21.32c.17-.28.34-.55.53-.87h.01c6.76-11.06,10.66-24.03,10.66-37.87v-106.03c0-8.12-1.36-15.93-3.84-23.24-.02-.06-.05-.12-.07-.18,4.41,3.75,8.34,8.04,11.63,12.81Zm-80.76-55.12c20.07,0,38.03,9.06,50.1,23.28-7.37-2.52-15.24-3.92-23.44-3.92H109.38l-19.39-19.35h161.03Zm-148.33,22.99v214.5h-19.35v-233.82l19.35,19.32Zm-15.48,221.81h15.48v15.45l-15.48-15.45Zm22.78,0h291.24s.09.01.14.02l19.37,19.33H110v-19.35Zm540.33-5.38v-233.63l19.35,19.32v233.64l-19.35-19.32Zm24.88-219.46c-.11,0-.2.03-.3.04l-19.43-19.4h308.4l-19.35,19.35h-269.31Zm272.33,7.3h42.99l-210.41,210.41h-42.99l210.41-210.41Zm-210.58,217.71h35.85l-17.91,17.91-17.94-17.91Zm46.18,0h188.15l19.39,19.36h-226.9l19.36-19.36Z"/>
</svg>